<?xml version="1.0" encoding="utf-8" ?>
<svg baseProfile="full" height="900px" version="1.1" viewBox="0 0 1400 900" width="1400px" xmlns="http://www.w3.org/2000/svg" xmlns:ev="http://www.w3.org/2001/xml-events" xmlns:xlink="http://www.w3.org/1999/xlink"><defs /><rect fill="#1a1a2e" height="900" width="1400" x="0" y="0" /><rect fill="#0f3460" height="38" rx="0" width="1400" x="0" y="0" /><text fill="#e0e0e0" font-family="monospace" font-size="15" font-weight="bold" text-anchor="middle" x="700" y="24">水火箭飛行控制電腦  電路接線圖  Water Rocket Flight Computer — Circuit Schematic</text><g><rect fill="#16213e" height="680" rx="6" stroke="#4ecca3" stroke-width="2" width="340" x="530" y="80" /><text fill="#4ecca3" font-family="monospace" font-size="13" font-weight="bold" text-anchor="middle" x="700" y="102">Raspberry Pi Pico</text><text fill="#888" font-family="monospace" font-size="10" text-anchor="middle" x="700" y="117">RP2040 | 133MHz dual-core</text></g><circle cx="530" cy="135" fill="#888" r="3" /><text fill="#888" font-family="monospace" font-size="9" x="538" y="139">GP0</text><circle cx="530" cy="163" fill="#e94560" r="3" /><text fill="#e94560" font-family="monospace" font-size="9" x="538" y="167">GP1</text><text fill="#888" font-family="monospace" font-size="8" x="600" y="167">Rec SW</text><circle cx="530" cy="191" fill="#888" r="3" /><text fill="#888" font-family="monospace" font-size="9" x="538" y="195">GND</text><circle cx="530" cy="219" fill="#f5a623" r="3" /><text fill="#f5a623" font-family="monospace" font-size="9" x="538" y="223">GP2</text><text fill="#888" font-family="monospace" font-size="8" x="600" y="223">Srv X1</text><circle cx="530" cy="247" fill="#f5a623" r="3" /><text fill="#f5a623" font-family="monospace" font-size="9" x="538" y="251">GP3</text><text fill="#888" font-family="monospace" font-size="8" x="600" y="251">Srv X2</text><circle cx="530" cy="275" fill="#f5a623" r="3" /><text fill="#f5a623" font-family="monospace" font-size="9" x="538" y="279">GP4</text><text fill="#888" font-family="monospace" font-size="8" x="600" y="279">Srv Y1</text><circle cx="530" cy="303" fill="#f5a623" r="3" /><text fill="#f5a623" font-family="monospace" font-size="9" x="538" y="307">GP5</text><text fill="#888" font-family="monospace" font-size="8" x="600" y="307">Srv Y2</text><circle cx="530" cy="331" fill="#888" r="3" /><text fill="#888" font-family="monospace" font-size="9" x="538" y="335">GND</text><circle cx="530" cy="359" fill="#e94560" r="3" /><text fill="#e94560" font-family="monospace" font-size="9" x="538" y="363">GP6</text><text fill="#888" font-family="monospace" font-size="8" x="600" y="363">Rec LED</text><circle cx="530" cy="387" fill="#e2b96f" r="3" /><text fill="#e2b96f" font-family="monospace" font-size="9" x="538" y="391">GP7</text><text fill="#888" font-family="monospace" font-size="8" x="600" y="391">Sta LED</text><circle cx="530" cy="415" fill="#888" r="3" /><text fill="#888" font-family="monospace" font-size="9" x="538" y="419">GP8</text><text fill="#888" font-family="monospace" font-size="8" x="600" y="419">GPS TX</text><circle cx="530" cy="443" fill="#888" r="3" /><text fill="#888" font-family="monospace" font-size="9" x="538" y="447">GP9</text><text fill="#888" font-family="monospace" font-size="8" x="600" y="447">GPS RX</text><circle cx="530" cy="471" fill="#888" r="3" /><text fill="#888" font-family="monospace" font-size="9" x="538" y="475">GND</text><circle cx="530" cy="499" fill="#00d2ff" r="3" /><text fill="#00d2ff" font-family="monospace" font-size="9" x="538" y="503">GP10</text><text fill="#888" font-family="monospace" font-size="8" x="600" y="503">SD SCK</text><circle cx="530" cy="527" fill="#00d2ff" r="3" /><text fill="#00d2ff" font-family="monospace" font-size="9" x="538" y="531">GP11</text><text fill="#888" font-family="monospace" font-size="8" x="600" y="531">SD MOSI</text><circle cx="530" cy="555" fill="#00d2ff" r="3" /><text fill="#00d2ff" font-family="monospace" font-size="9" x="538" y="559">GP12</text><text fill="#888" font-family="monospace" font-size="8" x="600" y="559">SD MISO</text><circle cx="530" cy="583" fill="#00d2ff" r="3" /><text fill="#00d2ff" font-family="monospace" font-size="9" x="538" y="587">GP13</text><text fill="#888" font-family="monospace" font-size="8" x="600" y="587">SD CS</text><circle cx="530" cy="611" fill="#888" r="3" /><text fill="#888" font-family="monospace" font-size="9" x="538" y="615">GND</text><circle cx="530" cy="639" fill="#533483" r="3" /><text fill="#533483" font-family="monospace" font-size="9" x="538" y="643">GP14</text><text fill="#888" font-family="monospace" font-size="8" x="600" y="643">I2C SDA</text><circle cx="530" cy="667" fill="#533483" r="3" /><text fill="#533483" font-family="monospace" font-size="9" x="538" y="671">GP15</text><text fill="#888" font-family="monospace" font-size="8" x="600" y="671">I2C SCL</text><circle cx="870" cy="135" fill="#888" r="3" /><text fill="#888" font-family="monospace" font-size="9" text-anchor="end" x="862" y="139">VBUS</text><text fill="#888" font-family="monospace" font-size="8" text-anchor="end" x="800" y="139">USB 5V</text><circle cx="870" cy="163" fill="#e94560" r="3" /><text fill="#e94560" font-family="monospace" font-size="9" text-anchor="end" x="862" y="167">VSYS</text><text fill="#888" font-family="monospace" font-size="8" text-anchor="end" x="800" y="167">→Servo</text><circle cx="870" cy="191" fill="#888" r="3" /><text fill="#888" font-family="monospace" font-size="9" text-anchor="end" x="862" y="195">GND</text><circle cx="870" cy="219" fill="#888" r="3" /><text fill="#888" font-family="monospace" font-size="9" text-anchor="end" x="862" y="223">3V3_EN</text><circle cx="870" cy="247" fill="#4ecca3" r="3" /><text fill="#4ecca3" font-family="monospace" font-size="9" text-anchor="end" x="862" y="251">3V3OUT</text><text fill="#888" font-family="monospace" font-size="8" text-anchor="end" x="800" y="251">→Sensors</text><circle cx="870" cy="275" fill="#888" r="3" /><text fill="#888" font-family="monospace" font-size="9" text-anchor="end" x="862" y="279">ADC_REF</text><circle cx="870" cy="303" fill="#888" r="3" /><text fill="#888" font-family="monospace" font-size="9" text-anchor="end" x="862" y="307">GP28</text><circle cx="870" cy="331" fill="#888" r="3" /><text fill="#888" font-family="monospace" font-size="9" text-anchor="end" x="862" y="335">GND</text><circle cx="870" cy="359" fill="#888" r="3" /><text fill="#888" font-family="monospace" font-size="9" text-anchor="end" x="862" y="363">GP27</text><circle cx="870" cy="387" fill="#888" r="3" /><text fill="#888" font-family="monospace" font-size="9" text-anchor="end" x="862" y="391">GP26</text><circle cx="870" cy="415" fill="#888" r="3" /><text fill="#888" font-family="monospace" font-size="9" text-anchor="end" x="862" y="419">RUN</text><circle cx="870" cy="443" fill="#888" r="3" /><text fill="#888" font-family="monospace" font-size="9" text-anchor="end" x="862" y="447">GP22</text><circle cx="870" cy="471" fill="#888" r="3" /><text fill="#888" font-family="monospace" font-size="9" text-anchor="end" x="862" y="475">GND</text><circle cx="870" cy="499" fill="#888" r="3" /><text fill="#888" font-family="monospace" font-size="9" text-anchor="end" x="862" y="503">GP21</text><circle cx="870" cy="527" fill="#888" r="3" /><text fill="#888" font-family="monospace" font-size="9" text-anchor="end" x="862" y="531">GP20</text><circle cx="870" cy="555" fill="#888" r="3" /><text fill="#888" font-family="monospace" font-size="9" text-anchor="end" x="862" y="559">GP19</text><circle cx="870" cy="583" fill="#888" r="3" /><text fill="#888" font-family="monospace" font-size="9" text-anchor="end" x="862" y="587">GP18</text><circle cx="870" cy="611" fill="#888" r="3" /><text fill="#888" font-family="monospace" font-size="9" text-anchor="end" x="862" y="615">GND</text><circle cx="870" cy="639" fill="#888" r="3" /><text fill="#888" font-family="monospace" font-size="9" text-anchor="end" x="862" y="643">GP17</text><circle cx="870" cy="667" fill="#888" r="3" /><text fill="#888" font-family="monospace" font-size="9" text-anchor="end" x="862" y="671">GP16</text><g><rect fill="#16213e" height="90" rx="6" stroke="#533483" stroke-width="2" width="140" x="80" y="120" /><text fill="#533483" font-family="monospace" font-size="13" font-weight="bold" text-anchor="middle" x="150" y="142">BNO055</text><text fill="#888" font-family="monospace" font-size="10" text-anchor="middle" x="150" y="157">9-DOF IMU</text></g><text fill="#4ecca3" font-family="monospace" font-size="9" text-anchor="end" x="215" y="154">VCC</text><circle cx="220" cy="150" fill="#4ecca3" r="3" /><text fill="#888" font-family="monospace" font-size="9" text-anchor="end" x="215" y="168">GND</text><circle cx="220" cy="164" fill="#888" r="3" /><text fill="#533483" font-family="monospace" font-size="9" text-anchor="end" x="215" y="182">SDA</text><circle cx="220" cy="178" fill="#533483" r="3" /><text fill="#533483" font-family="monospace" font-size="9" text-anchor="end" x="215" y="196">SCL</text><circle cx="220" cy="192" fill="#533483" r="3" /><text fill="#888" font-family="monospace" font-size="9" text-anchor="end" x="215" y="210">ADR→GND</text><circle cx="220" cy="206" fill="#888" r="3" /><polyline fill="none" points="530,639 530,178 220,178" stroke="#533483" stroke-width="1.8" /><polyline fill="none" points="530,667 530,192 214,192" stroke="#533483" stroke-width="1.8" /><circle cx="530" cy="639" fill="#533483" r="4" /><g><rect fill="#16213e" height="75" rx="6" stroke="#9b59b6" stroke-width="2" width="140" x="80" y="260" /><text fill="#9b59b6" font-family="monospace" font-size="13" font-weight="bold" text-anchor="middle" x="150" y="282">BMP390</text><text fill="#888" font-family="monospace" font-size="10" text-anchor="middle" x="150" y="297">Barometer</text></g><text fill="#4ecca3" font-family="monospace" font-size="9" text-anchor="end" x="215" y="294">VCC</text><circle cx="220" cy="290" fill="#4ecca3" r="3" /><text fill="#888" font-family="monospace" font-size="9" text-anchor="end" x="215" y="308">GND</text><circle cx="220" cy="304" fill="#888" r="3" /><text fill="#533483" font-family="monospace" font-size="9" text-anchor="end" x="215" y="322">SDA</text><circle cx="220" cy="318" fill="#533483" r="3" /><text fill="#533483" font-family="monospace" font-size="9" text-anchor="end" x="215" y="336">SCL</text><circle cx="220" cy="332" fill="#533483" r="3" /><polyline fill="none" points="530,639 530,318 220,318" stroke="#533483" stroke-width="1.8" /><polyline fill="none" points="530,667 530,332 214,332" stroke="#533483" stroke-width="1.8" /><text fill="#533483" font-family="monospace" font-size="8" x="230" y="633">I2C (400kHz)</text><g><rect fill="#16213e" height="100" rx="6" stroke="#00d2ff" stroke-width="2" width="140" x="80" y="390" /><text fill="#00d2ff" font-family="monospace" font-size="13" font-weight="bold" text-anchor="middle" x="150" y="412">MicroSD</text><text fill="#888" font-family="monospace" font-size="10" text-anchor="middle" x="150" y="427">SPI @ 41.7MHz</text></g><text fill="#4ecca3" font-family="monospace" font-size="9" text-anchor="end" x="215" y="422">VCC</text><circle cx="220" cy="418" fill="#4ecca3" r="3" /><text fill="#888" font-family="monospace" font-size="9" text-anchor="end" x="215" y="435">GND</text><circle cx="220" cy="431" fill="#888" r="3" /><text fill="#00d2ff" font-family="monospace" font-size="9" text-anchor="end" x="215" y="448">CLK</text><circle cx="220" cy="444" fill="#00d2ff" r="3" /><text fill="#00d2ff" font-family="monospace" font-size="9" text-anchor="end" x="215" y="461">MOSI</text><circle cx="220" cy="457" fill="#00d2ff" r="3" /><text fill="#00d2ff" font-family="monospace" font-size="9" text-anchor="end" x="215" y="474">MISO</text><circle cx="220" cy="470" fill="#00d2ff" r="3" /><text fill="#00d2ff" font-family="monospace" font-size="9" text-anchor="end" x="215" y="487">CS</text><circle cx="220" cy="483" fill="#00d2ff" r="3" /><polyline fill="none" points="530,499 530,444 220,444" stroke="#00d2ff" stroke-width="1.8" /><circle cx="530" cy="499" fill="#00d2ff" r="4" /><polyline fill="none" points="530,527 530,457 220,457" stroke="#00d2ff" stroke-width="1.8" /><circle cx="530" cy="527" fill="#00d2ff" r="4" /><polyline fill="none" points="530,555 530,470 220,470" stroke="#00d2ff" stroke-width="1.8" /><circle cx="530" cy="555" fill="#00d2ff" r="4" /><polyline fill="none" points="530,583 530,483 220,483" stroke="#00d2ff" stroke-width="1.8" /><circle cx="530" cy="583" fill="#00d2ff" r="4" /><g><rect fill="#16213e" height="60" rx="6" stroke="#f5a623" stroke-width="2" width="120" x="960" y="120" /><text fill="#f5a623" font-family="monospace" font-size="13" font-weight="bold" text-anchor="middle" x="1020" y="142">SG90 Servo</text><text fill="#888" font-family="monospace" font-size="10" text-anchor="middle" x="1020" y="157">X1</text></g><circle cx="960" cy="142" fill="#e94560" r="3" /><text fill="#e94560" font-family="monospace" font-size="9" x="965" y="146">VCC</text><circle cx="960" cy="155" fill="#888" r="3" /><text fill="#888" font-family="monospace" font-size="9" x="965" y="159">GND</text><circle cx="960" cy="168" fill="#f5a623" r="3" /><text fill="#f5a623" font-family="monospace" font-size="9" x="965" y="172">SIG</text><polyline fill="none" points="870,219 870,168 960,168" stroke="#f5a623" stroke-width="1.8" /><g><rect fill="#16213e" height="60" rx="6" stroke="#f5a623" stroke-width="2" width="120" x="960" y="220" /><text fill="#f5a623" font-family="monospace" font-size="13" font-weight="bold" text-anchor="middle" x="1020" y="242">SG90 Servo</text><text fill="#888" font-family="monospace" font-size="10" text-anchor="middle" x="1020" y="257">X2</text></g><circle cx="960" cy="242" fill="#e94560" r="3" /><text fill="#e94560" font-family="monospace" font-size="9" x="965" y="246">VCC</text><circle cx="960" cy="255" fill="#888" r="3" /><text fill="#888" font-family="monospace" font-size="9" x="965" y="259">GND</text><circle cx="960" cy="268" fill="#f5a623" r="3" /><text fill="#f5a623" font-family="monospace" font-size="9" x="965" y="272">SIG</text><polyline fill="none" points="870,247 870,268 960,268" stroke="#f5a623" stroke-width="1.8" /><g><rect fill="#16213e" height="60" rx="6" stroke="#f5a623" stroke-width="2" width="120" x="960" y="320" /><text fill="#f5a623" font-family="monospace" font-size="13" font-weight="bold" text-anchor="middle" x="1020" y="342">SG90 Servo</text><text fill="#888" font-family="monospace" font-size="10" text-anchor="middle" x="1020" y="357">Y1</text></g><circle cx="960" cy="342" fill="#e94560" r="3" /><text fill="#e94560" font-family="monospace" font-size="9" x="965" y="346">VCC</text><circle cx="960" cy="355" fill="#888" r="3" /><text fill="#888" font-family="monospace" font-size="9" x="965" y="359">GND</text><circle cx="960" cy="368" fill="#f5a623" r="3" /><text fill="#f5a623" font-family="monospace" font-size="9" x="965" y="372">SIG</text><polyline fill="none" points="870,275 870,368 960,368" stroke="#f5a623" stroke-width="1.8" /><g><rect fill="#16213e" height="60" rx="6" stroke="#f5a623" stroke-width="2" width="120" x="960" y="420" /><text fill="#f5a623" font-family="monospace" font-size="13" font-weight="bold" text-anchor="middle" x="1020" y="442">SG90 Servo</text><text fill="#888" font-family="monospace" font-size="10" text-anchor="middle" x="1020" y="457">Y2</text></g><circle cx="960" cy="442" fill="#e94560" r="3" /><text fill="#e94560" font-family="monospace" font-size="9" x="965" y="446">VCC</text><circle cx="960" cy="455" fill="#888" r="3" /><text fill="#888" font-family="monospace" font-size="9" x="965" y="459">GND</text><circle cx="960" cy="468" fill="#f5a623" r="3" /><text fill="#f5a623" font-family="monospace" font-size="9" x="965" y="472">SIG</text><polyline fill="none" points="870,303 870,468 960,468" stroke="#f5a623" stroke-width="1.8" /><line stroke="#e94560" stroke-width="2" x1="910" x2="910" y1="163" y2="455" /><text fill="#e94560" font-family="monospace" font-size="9" x="914" y="159">VSYS</text><line stroke="#e94560" stroke-width="1.5" x1="910" x2="960" y1="142" y2="142" /><circle cx="910" cy="142" fill="#e94560" r="4" /><line stroke="#e94560" stroke-width="1.5" x1="910" x2="960" y1="242" y2="242" /><circle cx="910" cy="242" fill="#e94560" r="4" /><line stroke="#e94560" stroke-width="1.5" x1="910" x2="960" y1="342" y2="342" /><circle cx="910" cy="342" fill="#e94560" r="4" /><line stroke="#e94560" stroke-width="1.5" x1="910" x2="960" y1="442" y2="442" /><circle cx="910" cy="442" fill="#e94560" r="4" /><line fill="none" stroke="#e94560" stroke-width="1.8" x1="870" x2="910" y1="163" y2="163" /><circle cx="870" cy="163" fill="#e94560" r="4" /><g><rect fill="#16213e" height="55" rx="6" stroke="#e94560" stroke-width="2" width="140" x="80" y="540" /><text fill="#e94560" font-family="monospace" font-size="13" font-weight="bold" text-anchor="middle" x="150" y="562">LED 🔴 錄製</text><text fill="#888" font-family="monospace" font-size="10" text-anchor="middle" x="150" y="577">GP6 → 330Ω → LED</text></g><polyline fill="none" points="530,359 530,562 220,562" stroke="#e94560" stroke-width="1.8" /><circle cx="530" cy="359" fill="#e94560" r="4" /><g><rect fill="#16213e" height="55" rx="6" stroke="#e2b96f" stroke-width="2" width="140" x="80" y="620" /><text fill="#e2b96f" font-family="monospace" font-size="13" font-weight="bold" text-anchor="middle" x="150" y="642">LED 🟡 狀態</text><text fill="#888" font-family="monospace" font-size="10" text-anchor="middle" x="150" y="657">GP7 → 330Ω → LED</text></g><polyline fill="none" points="530,387 530,642 220,642" stroke="#e2b96f" stroke-width="1.8" /><circle cx="530" cy="387" fill="#e2b96f" r="4" /><g><rect fill="#16213e" height="55" rx="6" stroke="#e0e0e0" stroke-width="2" width="140" x="80" y="700" /><text fill="#e0e0e0" font-family="monospace" font-size="13" font-weight="bold" text-anchor="middle" x="150" y="722">錄製開關</text><text fill="#888" font-family="monospace" font-size="10" text-anchor="middle" x="150" y="737">GP1 (pull-up → GND)</text></g><polyline fill="none" points="530,163 530,722 220,722" stroke="#e0e0e0" stroke-width="1.8" /><circle cx="530" cy="163" fill="#e0e0e0" r="4" /><line fill="none" stroke="#4ecca3" stroke-width="1.8" x1="870" x2="890" y1="247" y2="247" /><circle cx="870" cy="247" fill="#4ecca3" r="4" /><line stroke="#4ecca3" stroke-width="1.5" x1="890" x2="890" y1="247" y2="418" /><line fill="none" stroke="#4ecca3" stroke-width="1.8" x1="890" x2="220" y1="150" y2="150" /><circle cx="890" cy="150" fill="#4ecca3" r="4" /><line fill="none" stroke="#4ecca3" stroke-width="1.8" x1="890" x2="220" y1="290" y2="290" /><circle cx="890" cy="290" fill="#4ecca3" r="4" /><line fill="none" stroke="#4ecca3" stroke-width="1.8" x1="890" x2="220" y1="418" y2="418" /><circle cx="890" cy="418" fill="#4ecca3" r="4" /><text fill="#4ecca3" font-family="monospace" font-size="9" x="892" y="242">3V3OUT</text><g><rect fill="#16213e" height="75" rx="6" stroke="#888" stroke-width="2" width="120" x="960" y="530" /><text fill="#888" font-family="monospace" font-size="13" font-weight="bold" text-anchor="middle" x="1020" y="552">PA1616D</text><text fill="#888" font-family="monospace" font-size="10" text-anchor="middle" x="1020" y="567">GPS (停用)</text></g><circle cx="960" cy="558" fill="#888" r="2" /><text fill="#888" font-family="monospace" font-size="8" x="965" y="562">VCC</text><circle cx="960" cy="571" fill="#888" r="2" /><text fill="#888" font-family="monospace" font-size="8" x="965" y="575">GND</text><circle cx="960" cy="584" fill="#888" r="2" /><text fill="#888" font-family="monospace" font-size="8" x="965" y="588">TX→GP9</text><circle cx="960" cy="597" fill="#888" r="2" /><text fill="#888" font-family="monospace" font-size="8" x="965" y="601">RX←GP8</text><polyline fill="none" points="870,415 870,597 960,597" stroke="#888" stroke-dasharray="6,4" stroke-width="1.8" /><polyline fill="none" points="870,443 870,584 955,584" stroke="#888" stroke-dasharray="6,4" stroke-width="1.8" /><rect fill="#16213e" height="140" rx="4" stroke="#0f3460" stroke-width="1" width="200" x="960" y="650" /><text fill="#e0e0e0" font-family="monospace" font-size="11" font-weight="bold" text-anchor="middle" x="1060" y="668">圖例 / Legend</text><line stroke="#4ecca3" stroke-width="2" x1="972" x2="990" y1="685" y2="685" /><text fill="#4ecca3" font-family="monospace" font-size="9" x="996" y="689">I2C 匯流排 (SDA/SCL)</text><line stroke="#00d2ff" stroke-width="2" x1="972" x2="990" y1="703" y2="703" /><text fill="#00d2ff" font-family="monospace" font-size="9" x="996" y="707">SPI 匯流排 (SD卡)</text><line stroke="#f5a623" stroke-width="2" x1="972" x2="990" y1="721" y2="721" /><text fill="#f5a623" font-family="monospace" font-size="9" x="996" y="725">PIO PWM 伺服訊號</text><line stroke="#e94560" stroke-width="2" x1="972" x2="990" y1="739" y2="739" /><text fill="#e94560" font-family="monospace" font-size="9" x="996" y="743">VSYS 電源 / LED</text><line stroke="#4ecca3" stroke-width="2" x1="972" x2="990" y1="757" y2="757" /><text fill="#4ecca3" font-family="monospace" font-size="9" x="996" y="761">3V3OUT 感測器電源</text><line stroke="#888" stroke-width="2" x1="972" x2="990" y1="775" y2="775" /><text fill="#888" font-family="monospace" font-size="9" x="996" y="779">GPS（虛線=停用）</text><text fill="#888" font-family="monospace" font-size="9" text-anchor="middle" x="700" y="894">github.com/ChunPingWang/water-rocket-flight-control-tutorial  |  2026-06-03</text></svg>